<svg width="23" height="23" viewBox="0 0 23 23" fill="none" xmlns="http://www.w3.org/2000/svg">
<g clip-path="url(#clip0_531_631)">
<path d="M13.5728 5.5278C13.2024 5.8982 13.2024 6.49655 13.5728 6.86695L17.2578 10.552H2.85014C2.32778 10.552 1.90039 10.9794 1.90039 11.5017C1.90039 12.0241 2.32778 12.4515 2.85014 12.4515H17.2673L13.5823 16.1365C13.2119 16.5069 13.2119 17.1052 13.5823 17.4756C13.9527 17.846 14.551 17.846 14.9214 17.4756L20.2305 12.1665C20.6009 11.7961 20.6009 11.1978 20.2305 10.8274L14.9119 5.5278C14.551 5.1574 13.9432 5.1574 13.5728 5.5278Z" fill="#0387EA"/>
</g>
<defs>
<clipPath id="clip0_531_631">
<rect width="22.794" height="22.794" fill="white" transform="translate(0 0.103516)"/>
</clipPath>
</defs>
</svg>
