<svg width="24" height="25" viewBox="0 0 24 25" fill="none" xmlns="http://www.w3.org/2000/svg">
<g clip-path="url(#clip0_1092_1166)">
<path d="M14.29 6.21047C13.9 6.60047 13.9 7.23047 14.29 7.62047L18.17 11.5005H3C2.45 11.5005 2 11.9505 2 12.5005C2 13.0505 2.45 13.5005 3 13.5005H18.18L14.3 17.3805C13.91 17.7705 13.91 18.4005 14.3 18.7905C14.69 19.1805 15.32 19.1805 15.71 18.7905L21.3 13.2005C21.69 12.8105 21.69 12.1805 21.3 11.7905L15.7 6.21047C15.32 5.82047 14.68 5.82047 14.29 6.21047Z" fill="#161F26"/>
</g>
<defs>
<clipPath id="clip0_1092_1166">
<rect width="24" height="24" fill="white" transform="translate(0 0.5)"/>
</clipPath>
</defs>
</svg>
