<svg width="23" height="23" viewBox="0 0 23 23" fill="none" xmlns="http://www.w3.org/2000/svg">
<g clip-path="url(#clip0_376_630)">
<path d="M9.22212 5.5239C9.59252 5.8943 9.59252 6.49264 9.22212 6.86304L5.53709 10.5481H19.9448C20.4671 10.5481 20.8945 10.9755 20.8945 11.4978C20.8945 12.0202 20.4671 12.4476 19.9448 12.4476H5.5276L9.21262 16.1326C9.58302 16.503 9.58302 17.1013 9.21262 17.4717C8.84222 17.8421 8.24388 17.8421 7.87347 17.4717L2.56438 12.1626C2.19398 11.7922 2.19398 11.1939 2.56438 10.8235L7.88297 5.5239C8.24388 5.15349 8.85172 5.15349 9.22212 5.5239Z" fill="#161F26"/>
</g>
<defs>
<clipPath id="clip0_376_630">
<rect width="22.794" height="22.794" fill="white" transform="matrix(-1 0 0 1 22.7949 0.101562)"/>
</clipPath>
</defs>
</svg>
