<svg width="20" height="20" viewBox="0 0 20 20" fill="none" xmlns="http://www.w3.org/2000/svg">
<path fill-rule="evenodd" clip-rule="evenodd" d="M11.2077 4.06689H13.766C16.841 4.06689 18.341 5.70856 18.3327 9.07522V13.1336C18.3327 16.3502 16.3493 18.3336 13.1243 18.3336H6.86601C3.65768 18.3336 1.66602 16.3502 1.66602 13.1252V6.86689C1.66602 3.41689 3.19935 1.66689 6.22435 1.66689H7.54102C8.31685 1.65856 9.04102 2.01689 9.51602 2.62522L10.2493 3.60022C10.4827 3.89189 10.8327 4.06689 11.2077 4.06689ZM6.14102 12.7419H13.8577C14.1993 12.7419 14.4743 12.4586 14.4743 12.1169C14.4743 11.7669 14.1993 11.4919 13.8577 11.4919H6.14102C5.79102 11.4919 5.51602 11.7669 5.51602 12.1169C5.51602 12.4586 5.79102 12.7419 6.14102 12.7419Z" fill="#0387EA"/>
</svg>
