<svg width="65" height="65" viewBox="0 0 65 65" fill="none" xmlns="http://www.w3.org/2000/svg">
<path fill-rule="evenodd" clip-rule="evenodd" d="M9.47852 27.9443C9.47852 15.4863 19.889 5.41699 32.4816 5.41699C45.1097 5.41699 55.5202 15.4863 55.5202 27.9443C55.5202 34.222 53.2371 40.0502 49.4792 44.99C45.3336 50.439 40.2239 55.1866 34.4725 58.9131C33.1561 59.7744 31.9682 59.8394 30.5235 58.9131C24.7393 55.1866 19.6296 50.439 15.5195 44.99C11.7589 40.0502 9.47852 34.222 9.47852 27.9443ZM24.9004 28.6457C24.9004 32.8191 28.3059 36.1015 32.4816 36.1015C36.66 36.1015 40.0983 32.8191 40.0983 28.6457C40.0983 24.5048 36.66 21.0626 32.4816 21.0626C28.3059 21.0626 24.9004 24.5048 24.9004 28.6457Z" fill="#0387EA"/>
</svg>
